<?xml version="1.0" encoding="utf-8"?>
<!-- Generator: Adobe Illustrator 24.1.1, SVG Export Plug-In . SVG Version: 6.00 Build 0)  -->
<svg version="1.1" id="Layer_1" xmlns="http://www.w3.org/2000/svg" xmlns:xlink="http://www.w3.org/1999/xlink" x="0px" y="0px"
	 viewBox="0 0 420 520.6" style="enable-background:new 0 0 420 520.6;" xml:space="preserve">
<style type="text/css">
	.st0{fill-rule:evenodd;clip-rule:evenodd;fill:#06A16D;}
	.st1{fill:#06A16D;}
	.st2{fill-rule:evenodd;clip-rule:evenodd;fill:#FFFFFF;}
	.st3{fill:#282828;}
</style>
<g>
	<path class="st0" d="M212.5,131.3c-6.21-0.71-12.48-5.63-15.41-8.6c-7.59-7.7-7.3-12.22-13.13-9.59c0,0.01-17.25,17.33-18.86,19.46
		c-2.58,3.42-5,4.47-5.65,10.38c-4.76,1.43-6.3,2.77-11.83,0.68c-3.92-1.48-6.14-3.16-8.99-5.28c-6.72-5-12.19-12.65-14.65-13.97
		c-3.43-0.52-8.93,6.1-12.04,9.02c-4.39,4.12-6.84,7.14-10.44,10.94c-2.94,3.11-8.74,8.57-3.19,13.8c1.03,0.97,1.65,1.24,2.9,2.47
		l8.92,7.59c4.1,3.26,6.22,7.88,14.45,5.9c9.06-2.18,18.1-12.79,25.09-18.14l11.63-10.12c0.78,0.64,1.6,1.08,2.38,1.79
		c1,0.93,1.21,1.35,2.26,2.19c5.13,4.06,9.36,8.78,16.49,11.16c10.8,3.6,21.2-1.2,27.73-6.52c8.09-6.58,12.31-10.22,18.62-17.95
		c27.83-34.09,24.51-73.2-8.48-92.95c-5.45-3.26-26.98-12.46-32.56-10.24c1.37,1.12,24.32,5.68,36.56,15.42
		c10.28,8.18,18.11,19.31,19.85,32.27c0.73,5.44,0.81,11.1-0.02,16.49C241.77,112.79,230.16,133.33,212.5,131.3"/>
	<path class="st0" d="M280.79,390.87c4.96,3.67,10.67,12.61,20.07,15.41c11.67,3.49,24.17-4.81,31.43-11.32
		c0.92-0.82,1.61-1.12,2.48-1.99c1.09-1.08,1.25-1.32,2.26-2.18c8.08-6.91,19.47-22.73,21.42-32.27
		c-2.62,1.72-4.18,8.03-10.11,13.72c-9.96,9.55-20.33,12.82-31.59,3.02c-11.45-9.96-6.9-18.51-19-7.69
		c-2.21,1.98-5.01,4.02-6.98,5.96c-3.77,3.7-10.7,9.31-11.37,14.51c-17.18,5.26-26.47-17.58-30.72-18.64
		c-2.18-0.54-10.03,6.45-11.36,7.73c-6.24,6-19.67,14.43-12.7,21.15c3.29,3.18,6.17,6.09,9.44,9.28c3,2.93,5.42,7.31,12.58,6.05
		c5.52-0.97,9.01-4.04,12.59-6.57C265.08,402.9,275.77,394.21,280.79,390.87"/>
	<path class="st0" d="M382.01,317.43c1.39-4.18-1.91-2.17-3.19-0.93c-1.87,1.8-2.14,2.73-4.09,4.38
		c-12.67,10.68-23.86,0.23-33.25-7.97c-3.91-3.42-6.36-7.9-9.45-6.65c-1.83,0.74-10.03,10.15-12.32,13.11
		c-1.29,1.66-2.52,3-3.79,4.69c-7.4,9.83-11.89,12.76-1.81,20.24c11.24,8.35,20.94,15.84,36.08,8.67
		c5.17-2.45,14.71-10.59,18.57-15.31C373.03,332.41,379.88,323.85,382.01,317.43"/>
	<path class="st0" d="M224.72,233.27l5.69,63.52c7.31,4.81,13.23,4.64,20,15.94l-104.06,66.49l0.5,31.39l116.19-74.13
		c10.79-45.9,7.71-50.8-22-75.98c1.77-10.42,9.6-19.62,30.67-24.66c12.44,99.44,84.14,42.76,84.25-3.84
		c0.12-50.59-17.28-55.2-38.25-71.42c-27.51-21.3-21.21-18.85-25.5-38.15c-3.82,7.51-6.96,19.68-6.93,26.84
		c0.1,24.03,19.02,45.33,37.73,58.32c15.86,11,15.2,5.52,22.7,25.35c-8.14,8.97-29.8,27.61-42.54,29.32
		c-15.41,4.23-14.08-3.06-19.19-32.29l11.27-7.96c-5.75-8.76-7.17-14.12-15.46-27.78C240.5,203.85,229.56,221.23,224.72,233.27"/>
	<path class="st0" d="M109.27,374.91c31.12-1.26,89.19-44.29,100.04-59.44c18.92-26.42,12.83-69.97-1.04-100
		c-11.3-24.48-37.68-48.41-57.53-16.16c-14.11,22.93-16.59,63.99,3.01,73.62c14.91,7.15,37.31-6.33,56.02-9.21
		c3.81,12.33,5.46,11.46-29.11,37.45c-65.61,49.31-127.3,40.24-136.87,2.35c-9.45-37.5,41.66-94.06,71.05-108.62
		c-32.45,9.39-73.56,58.1-76.94,93.01c-1.54,15.86,3.79,31.71,19.66,47.45c8.1,7.71,14.6,8.18,25.81,16.43
		C97.38,362.08,93.14,370.34,109.27,374.91"/>
</g>
<g>
	<polygon class="st3" points="47.79,443.72 46.19,442.11 44.63,443.7 46.21,445.3 	"/>
	<polygon class="st3" points="54.12,458.02 55.61,459.53 57.12,458.02 55.59,456.5 	"/>
	<path class="st3" d="M57.28,449.33c-0.05-0.3-0.1-0.59-0.15-0.89c-0.05-0.3-0.11-0.57-0.16-0.81c-0.05-0.25-0.1-0.45-0.14-0.62
		c-0.04-0.17-0.06-0.27-0.08-0.31l-1.95,0.59c0.03,0.09,0.06,0.23,0.1,0.41s0.09,0.37,0.14,0.59s0.1,0.46,0.15,0.71
		c0.05,0.25,0.09,0.5,0.13,0.74c0.04,0.24,0.07,0.46,0.09,0.67c0.03,0.21,0.04,0.38,0.04,0.52c0,0.37-0.06,0.66-0.17,0.87
		c-0.12,0.21-0.25,0.36-0.41,0.47c-0.16,0.1-0.32,0.17-0.48,0.19c-0.16,0.02-0.28,0.04-0.36,0.04h-3.89h-0.37h-0.32
		c-0.04,0-0.11,0-0.21-0.01c-0.09-0.01-0.2-0.02-0.32-0.05c-0.12-0.03-0.23-0.07-0.35-0.13s-0.23-0.13-0.33-0.23
		c-0.1-0.1-0.18-0.22-0.25-0.37c-0.07-0.15-0.1-0.33-0.1-0.54v-3.13h-2.05v3.19c0,0.14-0.02,0.28-0.06,0.43s-0.12,0.28-0.25,0.4
		c-0.13,0.12-0.31,0.22-0.56,0.31c-0.25,0.08-0.58,0.12-0.99,0.12h-1.72h-6.74l-0.07,2.06c0.44,0.02,0.87,0.05,1.3,0.11
		c0.43,0.05,0.83,0.13,1.2,0.22c0.37,0.09,0.71,0.21,1.01,0.36c0.3,0.15,0.54,0.32,0.73,0.53c-0.02,0.26-0.13,0.51-0.33,0.74
		s-0.47,0.43-0.81,0.6c-0.34,0.17-0.73,0.3-1.17,0.41c-0.45,0.1-0.92,0.15-1.42,0.15h-2.41c-0.63,0-1.21-0.13-1.73-0.4
		c-0.52-0.26-0.93-0.65-1.23-1.15c-0.41-0.66-0.62-1.46-0.62-2.39c0-0.33,0.02-0.66,0.07-1s0.11-0.69,0.21-1.06s0.22-0.75,0.37-1.15
		c0.15-0.4,0.33-0.82,0.54-1.27l-1.83-0.89c-0.5,1.04-0.87,2-1.09,2.87c-0.22,0.87-0.33,1.72-0.33,2.53c0,1.32,0.3,2.47,0.91,3.46
		c0.26,0.39,0.55,0.74,0.89,1.05c0.34,0.31,0.71,0.58,1.11,0.79c0.4,0.22,0.83,0.38,1.29,0.5c0.46,0.12,0.94,0.17,1.45,0.17h2.41
		c0.8,0,1.55-0.09,2.26-0.26s1.33-0.42,1.87-0.74c0.53-0.32,0.96-0.71,1.27-1.16c0.31-0.46,0.47-0.97,0.47-1.53
		c0-0.24-0.06-0.49-0.17-0.75c-0.11-0.26-0.28-0.51-0.5-0.75h1.11H44h0.07v-0.01c0.58-0.01,1.11-0.08,1.58-0.23
		c0.49-0.16,0.9-0.38,1.24-0.68c0.28,0.3,0.64,0.53,1.08,0.68c0.44,0.15,0.94,0.23,1.49,0.23h0.32h0.37h3.83
		c0.41,0,0.83-0.07,1.24-0.22c0.41-0.14,0.79-0.36,1.12-0.66c0.33-0.3,0.6-0.67,0.81-1.13c0.21-0.46,0.31-1,0.31-1.62
		c0-0.21-0.02-0.45-0.05-0.73C57.37,449.91,57.33,449.62,57.28,449.33z"/>
	<polygon class="st3" points="50.53,458.01 52.02,459.51 53.53,458.01 52,456.48 	"/>
	<path class="st3" d="M67.17,449.58c-0.6-0.9-1.09-1.64-1.47-2.21s-0.67-1.02-0.89-1.34s-0.36-0.54-0.43-0.66l-0.12-0.18l-0.57-0.87
		l-1.72,1.13l0.57,0.87c0.01,0.01,0.05,0.07,0.12,0.19s0.22,0.34,0.43,0.66c0.21,0.32,0.51,0.76,0.89,1.33
		c0.38,0.57,0.87,1.31,1.47,2.22c0.23,0.34,0.36,0.59,0.41,0.75c0.04,0.16,0.07,0.29,0.07,0.37c0,0.06-0.01,0.1-0.03,0.14
		c-0.03,0.09-0.15,0.18-0.34,0.28c-0.2,0.1-0.5,0.18-0.9,0.24c-0.3,0.04-0.56,0.07-0.76,0.07c-0.21,0-0.34,0-0.41,0
		c-0.29,0-0.59-0.01-0.88-0.04c-0.35-0.03-0.68-0.08-0.99-0.16c-0.31-0.08-0.57-0.17-0.79-0.3l-0.89-0.51l-1.03,1.79l0.9,0.51
		c0.2,0.11,0.41,0.21,0.64,0.3c0.22,0.08,0.45,0.16,0.67,0.21c0.22,0.06,0.44,0.1,0.65,0.13c0.21,0.03,0.41,0.06,0.59,0.08
		c0.36,0.04,0.74,0.06,1.12,0.06c0.26,0,0.51-0.01,0.75-0.02c0.25-0.02,0.49-0.04,0.73-0.08c0.68-0.09,1.25-0.27,1.71-0.53
		c0.53-0.29,0.9-0.68,1.12-1.19c0.14-0.31,0.21-0.63,0.21-0.98c0-0.23-0.03-0.46-0.08-0.7C67.77,450.64,67.53,450.12,67.17,449.58z"
		/>
	<path class="st3" d="M83.84,449.23c0.32-0.31,0.7-0.55,1.14-0.72c0.44-0.17,0.92-0.25,1.44-0.25c0.23,0,0.45,0.02,0.67,0.05
		c0.22,0.03,0.47,0.09,0.73,0.17l0.52-1.99c-0.34-0.09-0.67-0.15-0.97-0.2s-0.6-0.07-0.9-0.07c-0.73,0-1.39,0.1-2,0.3
		c-0.6,0.2-1.13,0.47-1.59,0.82c-0.46,0.34-0.84,0.75-1.15,1.22c-0.31,0.47-0.52,0.95-0.65,1.43c-0.12,0.48-0.18,0.95-0.18,1.39
		c0,0.14,0.01,0.29,0.02,0.43c0.04,0.6,0.18,1.21,0.42,1.82c0.21,0.06,0.44,0.12,0.69,0.18c0.25,0.06,0.5,0.13,0.76,0.2
		s0.52,0.14,0.78,0.21c0.26,0.07,0.51,0.14,0.75,0.2c0.56,0.16,1.12,0.31,1.7,0.46c0,0.5-0.07,0.93-0.2,1.28s-0.34,0.64-0.63,0.86
		c-0.28,0.22-0.64,0.38-1.08,0.48s-0.96,0.15-1.56,0.15h-1.99c-0.63,0-1.21-0.13-1.73-0.4s-0.93-0.65-1.23-1.15
		c-0.42-0.66-0.62-1.46-0.62-2.39c0-0.65,0.1-1.35,0.31-2.09s0.52-1.55,0.94-2.44l-1.83-0.89c-0.5,1.04-0.88,2.01-1.12,2.9
		c-0.25,0.89-0.37,1.75-0.37,2.56c0,1.32,0.3,2.47,0.91,3.46c0.26,0.39,0.55,0.74,0.89,1.05c0.34,0.31,0.7,0.58,1.11,0.79
		c0.4,0.22,0.83,0.38,1.29,0.5c0.46,0.12,0.94,0.17,1.45,0.17h1.99c0.99,0,1.82-0.11,2.51-0.32c0.69-0.21,1.25-0.53,1.68-0.95
		c0.43-0.42,0.75-0.95,0.94-1.58c0.19-0.63,0.29-1.38,0.29-2.22c0-0.5-0.13-0.92-0.38-1.25c-0.25-0.33-0.66-0.57-1.23-0.72
		c-0.37-0.09-0.71-0.17-1.01-0.25c-0.3-0.08-0.59-0.15-0.85-0.22c-0.27-0.07-0.52-0.14-0.77-0.2c-0.25-0.07-0.5-0.13-0.77-0.2
		c-0.01-0.13-0.02-0.25-0.02-0.38c0-0.4,0.06-0.76,0.19-1.1C83.28,449.92,83.52,449.54,83.84,449.23z"/>
	<path class="st3" d="M107.95,449.82c-0.12-0.31-0.28-0.59-0.48-0.85c-0.11-0.14-0.24-0.31-0.41-0.52s-0.34-0.44-0.53-0.69
		s-0.39-0.51-0.6-0.78c-0.21-0.27-0.41-0.54-0.6-0.8c-0.47-0.62-0.96-1.27-1.48-1.95l-1.62,1.22c0.6,0.75,1.17,1.45,1.7,2.1
		c0.53,0.65,0.99,1.25,1.38,1.79c0.39,0.54,0.66,0.99,0.81,1.34c0.15,0.35,0.23,0.64,0.23,0.86c0,0.11-0.02,0.22-0.05,0.32
		c-0.08,0.25-0.2,0.45-0.36,0.6c-0.16,0.16-0.34,0.28-0.54,0.37c-0.2,0.09-0.41,0.15-0.64,0.19c-0.23,0.03-0.44,0.05-0.65,0.05
		c-0.24,0-0.49-0.03-0.74-0.08c-0.26-0.06-0.5-0.13-0.73-0.21c0.43-0.4,0.77-0.85,1.02-1.35c0.24-0.5,0.37-1.07,0.37-1.7
		c0-0.24-0.04-0.49-0.11-0.76s-0.18-0.53-0.32-0.79c-0.14-0.26-0.32-0.51-0.52-0.75c-0.21-0.24-0.45-0.45-0.72-0.63
		c-0.27-0.18-0.58-0.33-0.91-0.43c-0.33-0.11-0.69-0.16-1.08-0.16c-0.52,0-1.01,0.08-1.46,0.25c-0.45,0.17-0.84,0.4-1.18,0.69
		c-0.33,0.3-0.6,0.65-0.79,1.06c-0.19,0.42-0.29,0.87-0.29,1.37c0,0.58,0.11,1.1,0.32,1.56c0.21,0.46,0.51,0.88,0.89,1.27
		c-0.31,0.03-0.62,0.05-0.93,0.06c-0.31,0.01-0.65,0.01-1,0.01h-0.7c-0.53,0-0.94-0.03-1.24-0.08c-0.3-0.06-0.52-0.17-0.67-0.35
		s-0.24-0.43-0.27-0.75S93,450.56,93,450.03v-9.06h-2.06v9.06c0,0.51,0.02,0.98,0.05,1.4s0.1,0.8,0.2,1.13
		c0.1,0.34,0.25,0.63,0.44,0.88s0.45,0.45,0.76,0.62c0.32,0.16,0.71,0.29,1.17,0.37c0.37,0.07,0.82,0.1,1.32,0.11v0.01h1.05
		c1.78,0,3.26-0.18,4.45-0.54c0.07,0.04,0.16,0.08,0.26,0.13c0.1,0.05,0.21,0.1,0.31,0.14c0.11,0.06,0.23,0.11,0.36,0.16
		c0.49,0.24,0.97,0.41,1.45,0.5c0.47,0.09,0.93,0.14,1.37,0.14c0.51,0,0.99-0.06,1.42-0.18c0.43-0.12,0.82-0.29,1.15-0.51
		s0.62-0.48,0.85-0.78c0.23-0.3,0.41-0.63,0.53-1c0.09-0.27,0.14-0.51,0.16-0.73s0.02-0.38,0.02-0.5c0-0.2-0.01-0.41-0.04-0.61
		C108.16,450.45,108.07,450.14,107.95,449.82z M101.97,450.47c-0.09,0.22-0.21,0.43-0.36,0.62s-0.32,0.36-0.52,0.51
		c-0.19,0.15-0.4,0.28-0.61,0.38c-0.63-0.33-1.1-0.69-1.41-1.06c-0.31-0.38-0.47-0.82-0.47-1.32c0-0.21,0.05-0.4,0.15-0.59
		c0.1-0.19,0.23-0.35,0.39-0.49c0.16-0.14,0.35-0.25,0.57-0.34c0.21-0.08,0.44-0.13,0.67-0.13c0.16,0,0.34,0.03,0.54,0.1
		c0.2,0.07,0.39,0.18,0.57,0.32s0.33,0.33,0.45,0.54s0.18,0.47,0.18,0.76C102.1,450.01,102.06,450.24,101.97,450.47z"/>
	<polygon class="st3" points="121.91,445.68 120.38,444.15 118.91,445.68 120.4,447.18 	"/>
	<polygon class="st3" points="118.11,445.66 116.58,444.13 115.12,445.66 116.61,447.16 	"/>
	<polygon class="st3" points="130.18,458.06 131.66,459.57 133.17,458.06 131.65,456.54 	"/>
	<polygon class="st3" points="133.76,458.08 135.25,459.59 136.76,458.08 135.23,456.56 	"/>
	<path class="st3" d="M141.51,450.74c0,0.34-0.03,0.61-0.08,0.8c-0.05,0.2-0.14,0.35-0.25,0.46c-0.16,0.16-0.42,0.28-0.76,0.36
		c-0.35,0.08-0.82,0.12-1.42,0.12h-1.13c-0.04,0-0.11,0-0.21-0.01c-0.09-0.01-0.2-0.02-0.32-0.05c-0.12-0.03-0.23-0.07-0.35-0.13
		s-0.23-0.13-0.33-0.23c-0.1-0.1-0.18-0.22-0.25-0.37c-0.07-0.15-0.1-0.33-0.1-0.54v-3.13h-2.05v3.19c0,0.14-0.02,0.28-0.06,0.43
		c-0.04,0.15-0.12,0.28-0.25,0.4c-0.13,0.12-0.31,0.22-0.56,0.31c-0.25,0.08-0.58,0.12-0.99,0.12h-3.1H129h-0.4
		c-0.09,0-0.23-0.01-0.41-0.04c-0.18-0.03-0.36-0.08-0.53-0.17s-0.33-0.23-0.46-0.41c-0.13-0.18-0.2-0.43-0.2-0.75v-3.08h-2.06v3.13
		c0,0.1-0.01,0.23-0.03,0.38s-0.09,0.3-0.21,0.44c-0.12,0.14-0.31,0.26-0.57,0.36s-0.63,0.15-1.11,0.15h-10
		c-0.09,0-0.21-0.01-0.38-0.04c-0.16-0.03-0.33-0.1-0.49-0.21c-0.16-0.11-0.3-0.28-0.42-0.5c-0.12-0.22-0.18-0.52-0.18-0.9
		c0-0.2,0.02-0.44,0.07-0.72s0.1-0.55,0.17-0.82c0.06-0.27,0.13-0.53,0.19-0.76c0.07-0.24,0.12-0.42,0.17-0.55l-0.99-0.31
		l-0.98-0.31c-0.02,0.06-0.07,0.21-0.14,0.46c-0.08,0.25-0.15,0.54-0.23,0.88c-0.08,0.34-0.15,0.7-0.22,1.08
		c-0.07,0.38-0.1,0.73-0.1,1.05c0,0.36,0.03,0.69,0.1,0.98s0.16,0.55,0.26,0.78c0.11,0.23,0.23,0.43,0.36,0.6
		c0.13,0.17,0.26,0.31,0.39,0.43c0.32,0.29,0.68,0.52,1.09,0.68c0.41,0.16,0.84,0.24,1.3,0.24h10.08c1.24-0.01,2.21-0.32,2.89-0.94
		c0.17,0.17,0.36,0.31,0.57,0.43s0.43,0.21,0.66,0.29c0.23,0.08,0.46,0.13,0.7,0.17c0.24,0.04,0.47,0.06,0.7,0.06h0.4h0.3h3.1
		c0.62,0,1.17-0.08,1.65-0.24c0.49-0.16,0.9-0.38,1.24-0.68c0.28,0.3,0.64,0.53,1.08,0.68c0.44,0.15,0.94,0.23,1.49,0.23h1.51v-0.01
		c0.73-0.02,1.34-0.1,1.83-0.25c0.57-0.17,1.04-0.43,1.41-0.78c0.21-0.21,0.37-0.43,0.5-0.66c0.13-0.23,0.22-0.47,0.29-0.71
		c0.07-0.24,0.11-0.48,0.13-0.72c0.02-0.24,0.03-0.47,0.03-0.69v-9.81h-2.05V450.74z"/>
	<polygon class="st3" points="168.34,440.47 166.74,438.86 165.18,440.45 166.76,442.05 	"/>
	<path class="st3" d="M170.18,447.06c-0.11-0.39-0.26-0.76-0.45-1.11c-0.19-0.35-0.42-0.65-0.69-0.91c-0.27-0.26-0.6-0.47-0.97-0.63
		s-0.81-0.25-1.29-0.27h-0.18c-0.47,0-0.91,0.08-1.32,0.25c-0.46,0.2-0.85,0.46-1.19,0.81c-0.33,0.35-0.59,0.75-0.78,1.21
		c-0.19,0.46-0.28,0.94-0.28,1.45c0,0.64,0.11,1.18,0.32,1.61c0.22,0.43,0.52,0.78,0.9,1.04s0.83,0.45,1.34,0.56
		c0.51,0.11,1.06,0.17,1.65,0.17h1.2c-0.03,0.14-0.09,0.29-0.19,0.44c-0.09,0.15-0.25,0.28-0.48,0.41c-0.23,0.12-0.53,0.22-0.92,0.3
		c-0.39,0.08-0.89,0.12-1.52,0.12h-2.37h-1.38h-2.25c-0.05-0.02-0.12-0.05-0.22-0.09c-0.1-0.04-0.23-0.12-0.41-0.23
		c0.53-0.56,0.95-1.03,1.27-1.41c0.32-0.38,0.57-0.71,0.74-0.97s0.29-0.49,0.35-0.66s0.09-0.34,0.09-0.49c0-0.16-0.02-0.32-0.06-0.5
		s-0.09-0.34-0.16-0.5c-0.11-0.23-0.24-0.44-0.41-0.63c-0.17-0.19-0.36-0.34-0.57-0.48s-0.45-0.23-0.7-0.31
		c-0.25-0.07-0.51-0.11-0.78-0.11h-3.3c-0.55,0-1.01,0.07-1.38,0.21s-0.69,0.35-0.95,0.64c-0.13,0.15-0.24,0.31-0.32,0.47
		c-0.08,0.16-0.14,0.33-0.18,0.49s-0.07,0.31-0.08,0.46c-0.01,0.15-0.02,0.28-0.02,0.41v0.44c0.1,0.1,0.24,0.25,0.43,0.43
		c0.19,0.19,0.4,0.41,0.66,0.66c0.25,0.25,0.53,0.51,0.83,0.8c0.3,0.29,0.62,0.57,0.95,0.86c-0.25,0.08-0.54,0.15-0.88,0.22
		c-0.34,0.06-0.72,0.12-1.12,0.16s-0.83,0.08-1.27,0.1c-0.38,0.02-0.75,0.03-1.12,0.03c-0.44-0.01-0.81-0.03-1.08-0.08
		c-0.3-0.06-0.52-0.17-0.67-0.35s-0.24-0.43-0.27-0.75s-0.05-0.75-0.05-1.28v-9.06h-2.06v9.06c0,0.51,0.02,0.98,0.05,1.4
		s0.1,0.8,0.2,1.13c0.1,0.34,0.25,0.63,0.44,0.88s0.45,0.45,0.76,0.62c0.32,0.16,0.71,0.29,1.17,0.37c0.37,0.07,0.82,0.1,1.32,0.11
		v0.01c0.06,0,0.11-0.01,0.17-0.01c0.07,0,0.12,0.01,0.19,0.01v-0.01c0.49-0.01,0.98-0.02,1.47-0.06c0.61-0.05,1.19-0.12,1.74-0.21
		c0.56-0.09,1.08-0.21,1.56-0.35c0.48-0.14,0.91-0.3,1.28-0.49c0.32,0.25,0.6,0.44,0.85,0.58s0.47,0.26,0.66,0.34
		c0.19,0.08,0.35,0.13,0.49,0.16s0.27,0.04,0.38,0.04h2.29h1.38h2.37c0.44,0,0.87-0.03,1.3-0.08c0.42-0.05,0.83-0.14,1.21-0.25
		c0.39-0.12,0.74-0.27,1.07-0.46c0.33-0.18,0.61-0.42,0.84-0.69s0.42-0.6,0.56-0.96c0.13-0.36,0.2-0.78,0.2-1.25v-1.3
		c-0.01-0.42-0.04-0.84-0.08-1.27C170.38,447.86,170.29,447.45,170.18,447.06z M158.03,450.16c-0.2,0.21-0.38,0.4-0.56,0.57
		s-0.34,0.32-0.5,0.44c-0.33-0.29-0.64-0.57-0.92-0.85c-0.28-0.28-0.54-0.55-0.77-0.8c-0.24-0.25-0.45-0.49-0.65-0.71
		c-0.2-0.22-0.38-0.41-0.56-0.57c0.01-0.04,0.04-0.07,0.07-0.09c0.03-0.02,0.08-0.04,0.15-0.06c0.07-0.02,0.15-0.04,0.26-0.05
		c0.11-0.01,0.25-0.02,0.41-0.02h3.73c0.13,0,0.25,0.03,0.34,0.08c0.1,0.05,0.17,0.11,0.2,0.18c0.04,0.07,0.06,0.14,0.06,0.21
		l-0.01,0.08c-0.01,0.1-0.06,0.2-0.14,0.3c-0.17,0.21-0.35,0.43-0.54,0.65S158.22,449.95,158.03,450.16z M167.24,449.26
		c-0.26,0-0.52-0.02-0.8-0.05c-0.27-0.04-0.52-0.1-0.74-0.2s-0.4-0.24-0.54-0.43c-0.14-0.18-0.21-0.43-0.21-0.73
		c0-0.29,0.05-0.55,0.15-0.77s0.23-0.39,0.4-0.53c0.17-0.14,0.34-0.23,0.53-0.28s0.36-0.07,0.53-0.07c0.08,0,0.15,0,0.23,0.01
		c0.41,0.04,0.73,0.17,0.96,0.39c0.23,0.22,0.39,0.48,0.49,0.78c0.1,0.3,0.17,0.62,0.19,0.96c0.02,0.34,0.04,0.64,0.05,0.93H167.24z
		"/>
	<path class="st3" d="M184.06,447.15c-0.32-0.29-0.68-0.51-1.09-0.65c-0.41-0.14-0.84-0.22-1.3-0.22c-0.53,0-1.03,0.1-1.49,0.3
		c-0.46,0.2-0.87,0.48-1.23,0.83c-0.13,0.14-0.27,0.31-0.41,0.51c-0.14,0.19-0.26,0.42-0.38,0.69c-0.11,0.27-0.21,0.57-0.28,0.91
		c-0.07,0.34-0.11,0.72-0.11,1.15c0,0.73,0.12,1.34,0.36,1.84c0.24,0.5,0.55,0.9,0.93,1.2c0.38,0.3,0.8,0.52,1.27,0.65
		s0.93,0.19,1.39,0.19h1.59c-0.01,0.27-0.03,0.51-0.07,0.72c-0.04,0.21-0.1,0.4-0.17,0.57s-0.16,0.33-0.27,0.46
		c-0.11,0.13-0.24,0.26-0.38,0.38c-0.36,0.29-0.85,0.51-1.47,0.65c-0.62,0.14-1.42,0.21-2.39,0.21v2.06c0.62,0,1.19-0.03,1.69-0.08
		c0.51-0.05,0.97-0.13,1.39-0.24c0.42-0.11,0.8-0.24,1.14-0.41c0.34-0.17,0.65-0.36,0.93-0.58c0.28-0.23,0.53-0.47,0.74-0.73
		s0.38-0.55,0.51-0.87c0.14-0.32,0.24-0.67,0.31-1.05s0.1-0.8,0.1-1.25v-3.48c0-0.87-0.11-1.61-0.33-2.23
		C184.82,448.08,184.49,447.56,184.06,447.15z M183.32,452.49h-1.59c-0.06,0-0.13,0-0.22-0.01c-0.09-0.01-0.19-0.03-0.31-0.05
		c-0.11-0.03-0.23-0.06-0.35-0.1c-0.12-0.04-0.24-0.1-0.34-0.16c-0.22-0.14-0.39-0.33-0.5-0.57s-0.17-0.54-0.17-0.91
		c0-0.75,0.16-1.33,0.48-1.73c0.32-0.4,0.77-0.6,1.35-0.6c0.07,0,0.16,0,0.27,0.01c0.11,0.01,0.23,0.03,0.35,0.08
		c0.12,0.04,0.25,0.12,0.37,0.22c0.12,0.1,0.23,0.25,0.33,0.44s0.18,0.43,0.25,0.73c0.06,0.3,0.09,0.67,0.09,1.11V452.49z"/>
	<path class="st3" d="M210.75,449.82c-0.12-0.31-0.28-0.59-0.48-0.85c-0.11-0.14-0.24-0.31-0.41-0.52s-0.34-0.44-0.53-0.69
		s-0.39-0.51-0.6-0.78c-0.21-0.27-0.41-0.54-0.6-0.8c-0.47-0.62-0.96-1.27-1.48-1.95l-1.62,1.22c0.6,0.75,1.17,1.45,1.7,2.1
		c0.53,0.65,0.99,1.25,1.38,1.79c0.39,0.54,0.66,0.99,0.81,1.34c0.15,0.35,0.23,0.64,0.23,0.86c0,0.11-0.02,0.22-0.05,0.32
		c-0.08,0.25-0.2,0.45-0.36,0.6c-0.16,0.16-0.34,0.28-0.54,0.37c-0.2,0.09-0.41,0.15-0.64,0.19c-0.23,0.03-0.44,0.05-0.65,0.05
		c-0.24,0-0.49-0.03-0.74-0.08c-0.26-0.06-0.5-0.13-0.73-0.21c0.43-0.4,0.77-0.85,1.02-1.35c0.24-0.5,0.37-1.07,0.37-1.7
		c0-0.24-0.04-0.49-0.11-0.76s-0.18-0.53-0.32-0.79c-0.14-0.26-0.32-0.51-0.52-0.75c-0.21-0.24-0.45-0.45-0.72-0.63
		c-0.27-0.18-0.58-0.33-0.91-0.43c-0.33-0.11-0.69-0.16-1.08-0.16c-0.52,0-1.01,0.08-1.46,0.25c-0.45,0.17-0.84,0.4-1.18,0.69
		c-0.33,0.3-0.6,0.65-0.79,1.06c-0.19,0.42-0.29,0.87-0.29,1.37c0,0.58,0.11,1.1,0.32,1.56c0.21,0.46,0.51,0.88,0.89,1.27
		c-0.31,0.03-0.62,0.05-0.93,0.06c-0.31,0.01-0.65,0.01-1,0.01h-0.7c-0.53,0-0.94-0.03-1.24-0.08c-0.3-0.06-0.52-0.17-0.67-0.35
		s-0.24-0.43-0.27-0.75s-0.05-0.75-0.05-1.28v-9.06h-2.06v9.06c0,0.51,0.02,0.98,0.05,1.4s0.1,0.8,0.2,1.13
		c0.1,0.34,0.25,0.63,0.44,0.88s0.45,0.45,0.76,0.62c0.32,0.16,0.71,0.29,1.17,0.37c0.37,0.07,0.82,0.1,1.32,0.11v0.01h1.05
		c1.78,0,3.26-0.18,4.45-0.54c0.07,0.04,0.16,0.08,0.26,0.13c0.1,0.05,0.21,0.1,0.31,0.14c0.11,0.06,0.23,0.11,0.36,0.16
		c0.49,0.24,0.97,0.41,1.45,0.5c0.47,0.09,0.93,0.14,1.37,0.14c0.51,0,0.99-0.06,1.42-0.18c0.43-0.12,0.82-0.29,1.15-0.51
		s0.62-0.48,0.85-0.78c0.23-0.3,0.41-0.63,0.53-1c0.09-0.27,0.14-0.51,0.16-0.73s0.02-0.38,0.02-0.5c0-0.2-0.01-0.41-0.04-0.61
		C210.96,450.45,210.88,450.14,210.75,449.82z M204.77,450.47c-0.09,0.22-0.21,0.43-0.36,0.62s-0.32,0.36-0.52,0.51
		c-0.19,0.15-0.4,0.28-0.61,0.38c-0.63-0.33-1.1-0.69-1.41-1.06c-0.31-0.38-0.47-0.82-0.47-1.32c0-0.21,0.05-0.4,0.15-0.59
		c0.1-0.19,0.23-0.35,0.39-0.49c0.16-0.14,0.35-0.25,0.57-0.34c0.21-0.08,0.44-0.13,0.67-0.13c0.16,0,0.34,0.03,0.54,0.1
		c0.2,0.07,0.39,0.18,0.57,0.32s0.33,0.33,0.45,0.54s0.18,0.47,0.18,0.76C204.91,450.01,204.86,450.24,204.77,450.47z"/>
	<polygon class="st3" points="247.52,445.61 249.01,444.1 247.49,442.6 245.97,444.12 	"/>
	
		<rect x="244.53" y="440.47" transform="matrix(0.7071 -0.7071 0.7071 0.7071 -240.2435 302.9121)" class="st3" width="2" height="1.97"/>
	<polygon class="st3" points="244.97,444.14 243.46,442.63 241.96,444.16 243.46,445.67 	"/>
	<polygon class="st3" points="258.84,443.21 257.32,441.68 255.86,443.21 257.35,444.71 	"/>
	<path class="st3" d="M261.85,449.33c-0.05-0.3-0.1-0.59-0.15-0.89c-0.05-0.3-0.11-0.57-0.16-0.81c-0.05-0.25-0.1-0.45-0.14-0.62
		c-0.04-0.17-0.06-0.27-0.08-0.31l-1.95,0.59c0.03,0.09,0.06,0.23,0.1,0.41s0.09,0.37,0.14,0.59s0.1,0.46,0.15,0.71
		c0.05,0.25,0.09,0.5,0.13,0.74c0.04,0.24,0.07,0.46,0.09,0.67c0.03,0.21,0.04,0.38,0.04,0.52c0,0.37-0.06,0.66-0.17,0.87
		c-0.12,0.21-0.25,0.36-0.41,0.47c-0.16,0.1-0.32,0.17-0.48,0.19c-0.16,0.02-0.28,0.04-0.36,0.04h-3.95h-0.31h-0.67
		c-0.63,0-1.1-0.12-1.4-0.36c-0.31-0.24-0.47-0.63-0.48-1.16v-2.93h-2.06v2.93c-0.01,0.28-0.06,0.52-0.15,0.71
		c-0.08,0.19-0.19,0.35-0.32,0.47s-0.28,0.21-0.44,0.26c-0.16,0.05-0.33,0.08-0.5,0.08c-0.6,0-1.03-0.13-1.3-0.38
		c-0.27-0.25-0.41-0.66-0.41-1.23v-2.84h-2.05v2.88c0,0.34-0.05,0.61-0.15,0.81s-0.22,0.36-0.36,0.47
		c-0.14,0.11-0.29,0.18-0.44,0.22c-0.15,0.03-0.28,0.05-0.38,0.06c-0.58-0.01-1.01-0.14-1.28-0.39c-0.27-0.25-0.4-0.66-0.4-1.22
		v-2.84h-2.06v2.88c0,0.25-0.02,0.46-0.07,0.66c-0.05,0.2-0.14,0.36-0.28,0.5c-0.14,0.13-0.33,0.24-0.58,0.31s-0.57,0.1-0.97,0.1
		h-0.74h-0.28c-0.43,0-0.8-0.06-1.13-0.19c-0.33-0.13-0.64-0.31-0.94-0.56c-0.3-0.25-0.59-0.55-0.89-0.92s-0.62-0.79-0.98-1.26
		l-3.64-4.86l7.42-3.42l-0.85-1.89l-8.48,3.91l-0.37,1.77c0.24,0.27,0.5,0.58,0.8,0.92c0.29,0.34,0.59,0.7,0.89,1.07
		c0.3,0.37,0.59,0.75,0.87,1.13c0.28,0.38,0.53,0.74,0.75,1.09c0.22,0.35,0.4,0.66,0.53,0.95c0.13,0.29,0.2,0.52,0.2,0.71
		c0,0.09-0.01,0.18-0.03,0.27c-0.02,0.09-0.04,0.17-0.08,0.24c-0.09,0.15-0.23,0.29-0.42,0.42c-0.19,0.13-0.4,0.24-0.66,0.33
		c-0.25,0.09-0.53,0.16-0.84,0.22c-0.31,0.05-0.63,0.08-0.96,0.08h-2.62h-0.42h-0.03c-0.2,0-0.4-0.03-0.58-0.1
		c-0.19-0.07-0.36-0.16-0.51-0.28c-0.15-0.12-0.28-0.26-0.38-0.44s-0.17-0.37-0.21-0.58v-10.13h-2.03v13.69
		c0,0.46-0.05,0.88-0.14,1.26c-0.09,0.37-0.26,0.69-0.5,0.96c-0.25,0.26-0.58,0.47-1.02,0.61c-0.43,0.14-1,0.22-1.69,0.22h-0.43
		c-0.24,0-0.47-0.03-0.7-0.09c-0.23-0.06-0.44-0.14-0.64-0.25s-0.39-0.23-0.56-0.38c-0.17-0.15-0.32-0.31-0.45-0.49
		c-0.33-0.54-0.49-1.18-0.49-1.92c0-0.55,0.09-1.12,0.27-1.72s0.45-1.27,0.81-2.01l-1.86-0.89c-0.24,0.49-0.44,0.95-0.6,1.38
		s-0.29,0.83-0.39,1.21c-0.1,0.38-0.17,0.73-0.21,1.06c-0.04,0.33-0.07,0.65-0.07,0.96c0,0.36,0.02,0.69,0.07,1
		c0.05,0.31,0.11,0.59,0.18,0.84c0.08,0.25,0.16,0.48,0.25,0.67s0.19,0.37,0.28,0.52c0.22,0.34,0.48,0.64,0.77,0.91
		c0.29,0.27,0.61,0.5,0.96,0.68c0.35,0.19,0.72,0.33,1.12,0.43c0.4,0.1,0.81,0.15,1.24,0.15h0.43c3.59-0.01,5.38-1.71,5.38-5.11
		v-0.53c0.23,0.15,0.49,0.26,0.79,0.32c0.3,0.07,0.59,0.1,0.89,0.1h0.03h0.42h2.49c0.5,0,0.98-0.04,1.44-0.12
		c0.46-0.08,0.89-0.2,1.26-0.37c0.21-0.09,0.41-0.21,0.6-0.33c0.19-0.13,0.37-0.27,0.54-0.42c0.16-0.15,0.31-0.31,0.45-0.48
		c0.13-0.17,0.25-0.34,0.33-0.51c0.29,0.33,0.57,0.63,0.85,0.9s0.58,0.51,0.9,0.71c0.33,0.2,0.69,0.35,1.1,0.46
		c0.37,0.1,0.8,0.15,1.28,0.16v0.01h0.16h0.28h0.74c0.65,0,1.21-0.08,1.7-0.23c0.48-0.15,0.9-0.38,1.26-0.69
		c0.32,0.28,0.7,0.51,1.14,0.67c0.44,0.17,0.94,0.25,1.52,0.25h0.07c0.41-0.01,0.82-0.09,1.23-0.26c0.41-0.17,0.78-0.4,1.1-0.7
		c0.34,0.32,0.73,0.56,1.18,0.72c0.45,0.16,0.96,0.24,1.55,0.24c0.46,0,0.91-0.08,1.34-0.24c0.43-0.16,0.8-0.4,1.1-0.73
		c0.33,0.33,0.74,0.57,1.23,0.73s1.05,0.24,1.69,0.24h0.67h0.31h3.88c0.41,0,0.83-0.07,1.24-0.22c0.41-0.14,0.79-0.36,1.12-0.66
		c0.33-0.3,0.6-0.67,0.81-1.13c0.21-0.46,0.31-1,0.31-1.62c0-0.21-0.02-0.45-0.05-0.73C261.94,449.91,261.9,449.62,261.85,449.33z"
		/>
	<polygon class="st3" points="259.65,443.23 261.13,444.73 262.64,443.23 261.12,441.7 	"/>
	<path class="st3" d="M289.34,452.27c-0.65-0.14-1.17-0.37-1.57-0.69h0.01c-0.18-0.14-0.32-0.29-0.43-0.43
		c-0.11-0.14-0.2-0.28-0.26-0.42c-0.06-0.13-0.11-0.25-0.13-0.36c-0.02-0.11-0.03-0.21-0.03-0.29c0-0.28,0.06-0.53,0.18-0.74
		c0.12-0.21,0.27-0.39,0.47-0.54s0.4-0.26,0.64-0.33s0.46-0.11,0.69-0.11c0.2,0,0.42,0.04,0.66,0.12c0.24,0.08,0.48,0.18,0.71,0.3
		s0.46,0.25,0.68,0.38c0.22,0.13,0.4,0.25,0.56,0.35l1.03-1.76c-0.38-0.22-0.72-0.42-1.03-0.6c-0.31-0.18-0.61-0.33-0.9-0.46
		c-0.29-0.13-0.57-0.22-0.84-0.29c-0.28-0.07-0.57-0.1-0.87-0.1c-0.53,0-1.03,0.1-1.5,0.29s-0.88,0.46-1.23,0.8s-0.63,0.74-0.84,1.2
		c-0.21,0.46-0.31,0.96-0.31,1.49c0,0.14,0.01,0.31,0.02,0.49c0.01,0.18,0.04,0.38,0.1,0.58s0.13,0.42,0.25,0.65
		c0.11,0.23,0.26,0.45,0.45,0.68h-0.48h-2.46h-6.08l-0.07,2.06c0.44,0.02,0.87,0.05,1.3,0.11c0.43,0.05,0.83,0.13,1.2,0.22
		c0.37,0.09,0.71,0.21,1.01,0.36c0.3,0.15,0.54,0.32,0.73,0.53c-0.02,0.26-0.13,0.51-0.33,0.74s-0.47,0.43-0.81,0.6
		c-0.34,0.17-0.73,0.3-1.17,0.41c-0.45,0.1-0.92,0.15-1.42,0.15h-2.41c-0.63,0-1.21-0.13-1.73-0.4s-0.93-0.65-1.23-1.15
		c-0.41-0.66-0.62-1.46-0.62-2.39c0-0.33,0.02-0.66,0.07-1s0.11-0.69,0.21-1.06s0.22-0.75,0.37-1.15c0.15-0.4,0.33-0.82,0.54-1.27
		l-1.83-0.89c-0.5,1.04-0.87,2-1.09,2.87c-0.22,0.87-0.33,1.72-0.33,2.53c0,1.32,0.3,2.47,0.91,3.46c0.26,0.39,0.55,0.74,0.89,1.05
		c0.34,0.31,0.71,0.58,1.11,0.79c0.4,0.22,0.83,0.38,1.29,0.5s0.94,0.17,1.45,0.17h2.41c0.8,0,1.55-0.09,2.26-0.26
		s1.33-0.42,1.87-0.74c0.53-0.32,0.96-0.71,1.27-1.16c0.31-0.46,0.47-0.97,0.47-1.53c0-0.24-0.06-0.49-0.17-0.75
		c-0.11-0.26-0.28-0.51-0.5-0.75h0.45h2.46h7.44v-2.06h-1.18C290.75,452.49,289.99,452.42,289.34,452.27z"/>
	<polygon class="st3" points="319.39,443.95 317.87,442.43 316.4,443.95 317.89,445.46 	"/>
	<polygon class="st3" points="315.6,443.93 314.07,442.41 312.61,443.93 314.1,445.44 	"/>
	<polygon class="st3" points="325.79,457.78 327.37,459.38 328.95,457.8 327.35,456.2 	"/>
	<path class="st3" d="M331.63,448.42c-0.53-0.2-0.99-0.37-1.39-0.52c-0.4-0.15-0.75-0.28-1.05-0.4s-0.6-0.23-0.87-0.33
		c-0.28-0.1-0.56-0.2-0.84-0.3c-0.29-0.1-0.6-0.2-0.96-0.32c-0.4-0.13-0.76-0.19-1.09-0.19c-0.15,0-0.29,0.01-0.43,0.04
		c-0.45,0.09-0.84,0.26-1.17,0.52c-0.33,0.26-0.61,0.58-0.84,0.97c-0.23,0.38-0.41,0.79-0.54,1.21l1.9,0.57
		c0.1-0.27,0.21-0.49,0.34-0.67c0.13-0.18,0.27-0.3,0.44-0.39c0.17-0.08,0.36-0.12,0.58-0.12c0.22,0,0.47,0.05,0.75,0.13l4.7,1.65
		c-0.29,0.17-0.63,0.34-1,0.51c-0.37,0.17-0.77,0.34-1.19,0.5c-0.42,0.16-0.87,0.32-1.32,0.46c-0.46,0.14-0.92,0.27-1.39,0.38
		c-0.47,0.11-0.94,0.2-1.41,0.26c-0.47,0.06-0.93,0.09-1.37,0.09h-2.27h-0.44h-1.06c-0.04,0-0.11,0-0.21-0.01
		c-0.09-0.01-0.2-0.02-0.32-0.05c-0.12-0.03-0.23-0.07-0.35-0.13s-0.23-0.13-0.33-0.23c-0.1-0.1-0.18-0.22-0.25-0.37
		c-0.07-0.15-0.1-0.33-0.1-0.54v-3.13h-2.05v3.19c0,0.14-0.02,0.28-0.06,0.43c-0.04,0.15-0.12,0.28-0.25,0.4
		c-0.13,0.12-0.31,0.22-0.56,0.31c-0.25,0.08-0.58,0.12-0.99,0.12h-3.03h-0.27c-0.07,0-0.2-0.01-0.38-0.04
		c-0.19-0.03-0.37-0.09-0.57-0.2c-0.19-0.11-0.36-0.27-0.51-0.49s-0.22-0.52-0.22-0.9c0-0.57-0.08-1.12-0.23-1.64
		s-0.39-0.98-0.7-1.38c-0.31-0.4-0.71-0.71-1.18-0.94c-0.47-0.23-1.03-0.35-1.67-0.35c-0.43,0-0.8,0.06-1.13,0.17
		c-0.33,0.11-0.62,0.27-0.87,0.46c-0.25,0.19-0.47,0.42-0.65,0.68c-0.19,0.26-0.35,0.53-0.48,0.82s-0.25,0.59-0.35,0.9
		s-0.19,0.61-0.27,0.9c-0.08,0.28-0.15,0.54-0.23,0.78c-0.08,0.24-0.16,0.45-0.26,0.63c-0.09,0.18-0.2,0.32-0.32,0.43
		c-0.12,0.11-0.26,0.16-0.42,0.16h-0.41c-0.53,0-0.94-0.03-1.24-0.08c-0.3-0.06-0.52-0.17-0.67-0.35s-0.24-0.43-0.27-0.75
		s-0.05-0.75-0.05-1.28v-9.06h-2.06v9.06c0,0.51,0.02,0.98,0.05,1.4s0.1,0.8,0.2,1.13c0.1,0.34,0.25,0.63,0.44,0.88
		s0.45,0.45,0.76,0.62c0.32,0.16,0.71,0.29,1.17,0.37c0.37,0.07,0.82,0.1,1.31,0.11v0.01h0.86c0.35,0,0.69-0.07,1.02-0.21
		c0.33-0.14,0.63-0.36,0.89-0.66c0.38,0.21,0.74,0.39,1.06,0.56s0.63,0.3,0.92,0.42s0.58,0.2,0.86,0.26
		c0.28,0.06,0.58,0.09,0.88,0.09c0.4,0,0.8-0.09,1.19-0.28c0.39-0.19,0.76-0.53,1.12-1.02c0.32,0.23,0.68,0.42,1.09,0.59
		c0.38,0.16,0.8,0.24,1.25,0.25v0.01h0.09h0.27h3.03c0.62,0,1.17-0.08,1.65-0.24c0.49-0.16,0.9-0.38,1.24-0.68
		c0.28,0.3,0.64,0.53,1.08,0.68c0.44,0.15,0.94,0.23,1.49,0.23h1.06h0.44h2.27c0.81,0,1.62-0.09,2.43-0.26s1.59-0.4,2.34-0.66
		c0.75-0.27,1.45-0.56,2.1-0.87c0.65-0.31,1.22-0.61,1.71-0.88s0.88-0.51,1.18-0.7c0.29-0.19,0.46-0.3,0.5-0.33l-0.25-1.73
		C332.78,448.85,332.16,448.62,331.63,448.42z M307.32,451.75c-0.05,0.24-0.11,0.43-0.18,0.59c-0.08,0.15-0.16,0.27-0.25,0.35
		c-0.09,0.08-0.18,0.14-0.27,0.18c-0.09,0.04-0.17,0.06-0.24,0.06c-0.07,0-0.13,0-0.17,0h-0.05c-0.16,0-0.35-0.03-0.57-0.09
		c-0.23-0.06-0.48-0.15-0.73-0.26c-0.25-0.11-0.51-0.23-0.78-0.37c-0.27-0.13-0.52-0.27-0.77-0.4c0.07-0.2,0.13-0.42,0.2-0.66
		c0.06-0.24,0.13-0.48,0.21-0.72c0.08-0.24,0.17-0.47,0.26-0.69c0.1-0.22,0.21-0.42,0.35-0.59c0.14-0.17,0.3-0.31,0.49-0.41
		c0.19-0.1,0.41-0.15,0.66-0.15c0.27,0,0.51,0.05,0.71,0.14c0.2,0.09,0.37,0.21,0.51,0.36c0.14,0.14,0.25,0.3,0.34,0.48
		c0.09,0.18,0.16,0.35,0.21,0.51c0.05,0.17,0.08,0.32,0.1,0.46c0.02,0.14,0.03,0.24,0.03,0.3
		C307.39,451.21,307.37,451.51,307.32,451.75z"/>
	<rect x="335.95" y="440.97" class="st3" width="2.06" height="13.58"/>
	<polygon class="st3" points="370.74,457.93 372.32,459.53 373.9,457.95 372.3,456.35 	"/>
	
		<rect x="384.88" y="440.21" transform="matrix(0.7069 -0.7074 0.7074 0.7069 -198.9632 402.2816)" class="st3" width="2" height="1.97"/>
	<polygon class="st3" points="387.87,445.35 389.36,443.84 387.84,442.33 386.32,443.86 	"/>
	<polygon class="st3" points="385.32,443.88 383.81,442.37 382.3,443.9 383.81,445.4 	"/>
	<path class="st3" d="M391.79,450.13c-0.03-0.28-0.07-0.56-0.12-0.86c-0.05-0.29-0.11-0.59-0.17-0.88s-0.12-0.55-0.17-0.79
		c-0.05-0.24-0.1-0.44-0.14-0.6c-0.04-0.16-0.07-0.26-0.08-0.3l-1.95,0.62c0.03,0.09,0.06,0.22,0.1,0.39
		c0.04,0.17,0.09,0.36,0.14,0.58s0.09,0.45,0.14,0.69c0.05,0.24,0.09,0.48,0.13,0.71c0.04,0.23,0.07,0.45,0.09,0.66
		c0.02,0.2,0.04,0.38,0.04,0.51c0,0.36-0.06,0.65-0.17,0.86c-0.11,0.22-0.25,0.38-0.4,0.5c-0.15,0.11-0.3,0.19-0.46,0.23
		c-0.16,0.04-0.28,0.06-0.38,0.06c-0.61,0-1.05-0.13-1.32-0.4c-0.27-0.26-0.4-0.68-0.4-1.24v-2.82h-2.05v2.82
		c0,0.37-0.06,0.66-0.17,0.88c-0.12,0.21-0.25,0.38-0.41,0.48c-0.16,0.11-0.32,0.18-0.48,0.21c-0.16,0.03-0.28,0.05-0.36,0.05
		c-0.6,0-1.04-0.13-1.3-0.39c-0.26-0.26-0.4-0.67-0.4-1.23v-2.82h-2.06v2.85c0,0.37-0.06,0.66-0.17,0.87
		c-0.12,0.21-0.25,0.37-0.41,0.48c-0.16,0.11-0.32,0.17-0.48,0.2c-0.16,0.03-0.28,0.04-0.36,0.04h-1.57h-0.51h-0.18
		c-0.04,0-0.11,0-0.21-0.01c-0.09-0.01-0.2-0.02-0.32-0.05c-0.12-0.03-0.23-0.07-0.35-0.13s-0.23-0.13-0.33-0.23
		c-0.1-0.1-0.18-0.22-0.25-0.37c-0.07-0.15-0.1-0.33-0.1-0.54v-3.13h-2.05v3.19c0,0.14-0.02,0.28-0.06,0.43s-0.12,0.28-0.25,0.4
		c-0.13,0.12-0.31,0.22-0.56,0.31c-0.25,0.08-0.58,0.12-0.99,0.12h-1.36h-0.28c-0.43,0-0.8-0.06-1.13-0.19
		c-0.33-0.13-0.64-0.31-0.94-0.56c-0.3-0.25-0.59-0.55-0.89-0.92s-0.62-0.79-0.98-1.26l-3.64-4.86l7.42-3.42l-0.85-1.89l-8.48,3.91
		l-0.37,1.77c0.24,0.27,0.5,0.58,0.8,0.92c0.29,0.34,0.59,0.7,0.89,1.07c0.3,0.37,0.59,0.75,0.87,1.13
		c0.28,0.38,0.53,0.74,0.75,1.09c0.22,0.35,0.4,0.66,0.53,0.95c0.13,0.29,0.2,0.52,0.2,0.71c0,0.09-0.01,0.18-0.03,0.27
		c-0.02,0.09-0.04,0.17-0.08,0.24c-0.09,0.15-0.23,0.29-0.42,0.42c-0.19,0.13-0.4,0.24-0.66,0.33c-0.25,0.09-0.53,0.16-0.84,0.22
		c-0.31,0.05-0.63,0.08-0.96,0.08h-2.63h-0.41c-0.23,0-0.48-0.02-0.77-0.07s-0.57-0.14-0.85-0.29c-0.28-0.15-0.54-0.36-0.77-0.63
		c-0.24-0.27-0.41-0.63-0.52-1.08l-1.68-6.77l-1.98,0.47c0.03,0.15,0.05,0.3,0.08,0.44c0.03,0.14,0.06,0.29,0.09,0.46
		c-0.6,0.19-1.17,0.43-1.73,0.72c-0.56,0.29-1.05,0.64-1.48,1.05c-0.43,0.41-0.78,0.88-1.04,1.41c-0.26,0.53-0.39,1.13-0.39,1.8
		c0,0.48,0.07,0.92,0.21,1.31c0.14,0.4,0.33,0.75,0.58,1.06c0.24,0.31,0.53,0.57,0.86,0.77c0.33,0.21,0.66,0.35,0.98,0.42
		c0.33,0.08,0.63,0.11,0.91,0.11c0.13,0,0.25-0.01,0.38-0.02c0.41-0.03,0.83-0.13,1.25-0.31c0.33-0.14,0.62-0.31,0.87-0.51
		s0.45-0.45,0.6-0.73c0.17,0.4,0.4,0.76,0.7,1.06s0.64,0.56,1.02,0.76c0.38,0.2,0.8,0.36,1.26,0.46c0.45,0.1,0.93,0.16,1.42,0.16v0
		h0h0.41h2.5c0.5,0,0.98-0.04,1.44-0.12c0.46-0.08,0.89-0.2,1.26-0.37c0.21-0.09,0.41-0.21,0.6-0.33c0.19-0.13,0.37-0.27,0.54-0.42
		c0.16-0.15,0.31-0.31,0.45-0.48c0.13-0.17,0.25-0.34,0.33-0.51c0.29,0.33,0.57,0.63,0.85,0.9s0.58,0.51,0.9,0.71
		c0.33,0.2,0.69,0.35,1.1,0.46c0.39,0.1,0.84,0.15,1.36,0.16v0h0.09h0.28h1.36c0.62,0,1.17-0.08,1.65-0.24
		c0.49-0.16,0.9-0.38,1.24-0.68c0.28,0.3,0.64,0.53,1.08,0.68c0.44,0.15,0.94,0.23,1.49,0.23h0.18h0.51h1.57
		c0.43,0,0.87-0.08,1.29-0.24c0.43-0.16,0.82-0.4,1.15-0.73c0.33,0.31,0.72,0.55,1.17,0.71s0.97,0.24,1.56,0.24
		c0.43,0,0.86-0.08,1.29-0.24c0.42-0.16,0.81-0.4,1.14-0.72c0.33,0.31,0.73,0.56,1.2,0.72c0.46,0.17,0.99,0.25,1.57,0.25
		c0.41-0.01,0.83-0.08,1.24-0.24c0.41-0.15,0.78-0.38,1.1-0.69c0.32-0.31,0.59-0.69,0.79-1.15c0.2-0.46,0.31-1,0.31-1.62
		C391.84,450.65,391.82,450.41,391.79,450.13z M351.43,449.97c-0.07,0.38-0.21,0.69-0.42,0.91c-0.21,0.22-0.5,0.41-0.85,0.56
		c-0.25,0.09-0.5,0.13-0.76,0.13h-0.09c-0.3-0.01-0.57-0.08-0.82-0.2c-0.25-0.12-0.45-0.3-0.61-0.52c-0.16-0.23-0.24-0.51-0.24-0.84
		c0-0.64,0.29-1.22,0.86-1.73c0.57-0.52,1.39-0.94,2.46-1.27c0.05,0.24,0.11,0.48,0.18,0.74s0.13,0.5,0.19,0.76
		c0.06,0.25,0.1,0.47,0.12,0.64c0.02,0.17,0.03,0.31,0.03,0.41C351.47,449.69,351.45,449.83,351.43,449.97z"/>
</g>
<g>
	<g>
		<g>
			<path class="st1" d="M95.23,480.02c-1.61,0-2.86,0.57-3.77,1.7v-7H89.2v18.75h2.08l0.11-1.52c0.91,1.17,2.2,1.76,3.86,1.76
				c1.56,0,2.8-0.61,3.73-1.83s1.39-2.84,1.39-4.86v-0.19c0-2.11-0.46-3.78-1.37-4.99C98.1,480.62,96.84,480.02,95.23,480.02z
				 M97.23,490.54c-0.6,0.84-1.45,1.25-2.53,1.25c-1.47,0-2.55-0.69-3.24-2.08V484c0.65-1.38,1.72-2.07,3.22-2.07
				c1.11,0,1.97,0.42,2.56,1.26s0.89,2.02,0.89,3.56C98.13,488.44,97.83,489.71,97.23,490.54z"/>
			<path class="st1" d="M109.05,480.02c-1.05,0-2.03,0.29-2.93,0.88c-0.9,0.58-1.6,1.39-2.1,2.42s-0.75,2.2-0.75,3.51v0.41
				c0,1.97,0.56,3.54,1.68,4.72c1.12,1.17,2.58,1.76,4.38,1.76c2.21,0,3.87-0.85,4.98-2.54l-1.38-1.08c-0.42,0.54-0.9,0.97-1.46,1.3
				s-1.23,0.49-2.03,0.49c-1.12,0-2.04-0.4-2.77-1.2c-0.73-0.8-1.11-1.85-1.14-3.15h8.94v-0.94c0-2.11-0.48-3.73-1.43-4.86
				C112.11,480.58,110.77,480.02,109.05,480.02z M112.22,485.65h-6.61c0.14-1.19,0.53-2.12,1.15-2.78c0.62-0.67,1.39-1,2.3-1
				c0.95,0,1.7,0.32,2.25,0.95s0.86,1.52,0.92,2.67V485.65z"/>
			<path class="st1" d="M122.05,490.16l-3.3-9.9h-2.47l4.71,13.06l-0.5,1.34c-0.27,0.83-0.62,1.39-1.05,1.7
				c-0.43,0.31-1.02,0.46-1.79,0.46l-0.61-0.05v1.83l0.84,0.16l0.43,0.03c1.79,0,3.09-1.1,3.92-3.29l5.31-15.24h-2.42L122.05,490.16
				z"/>
			<path class="st1" d="M132.42,481.79l-0.03-1.52h-2.21v13.2h2.26v-9.38c0.53-1.26,1.53-1.9,3.01-1.9c0.4,0,0.77,0.03,1.11,0.09
				v-2.1c-0.23-0.11-0.56-0.17-1-0.17C134.21,480.02,133.16,480.61,132.42,481.79z"/>
			<path class="st1" d="M149.32,484.3c-0.04-1.33-0.49-2.38-1.35-3.14c-0.86-0.76-2.05-1.14-3.57-1.14c-0.96,0-1.84,0.18-2.65,0.54
				c-0.8,0.36-1.44,0.85-1.9,1.46c-0.47,0.61-0.7,1.25-0.7,1.91h2.27c0-0.58,0.27-1.07,0.81-1.48s1.22-0.61,2.03-0.61
				c0.92,0,1.61,0.24,2.08,0.71s0.71,1.1,0.71,1.89v1.03h-2.21c-1.89,0-3.36,0.38-4.41,1.14c-1.04,0.76-1.57,1.83-1.57,3.21
				c0,1.13,0.42,2.06,1.25,2.8c0.83,0.73,1.9,1.1,3.21,1.1c1.45,0,2.71-0.54,3.76-1.63c0.08,0.67,0.19,1.13,0.32,1.39h2.36v-0.19
				c-0.3-0.72-0.46-1.69-0.46-2.9V484.3z M147.06,489.78c-0.29,0.58-0.75,1.06-1.38,1.43c-0.63,0.37-1.31,0.55-2.02,0.55
				c-0.74,0-1.35-0.2-1.82-0.6c-0.47-0.4-0.71-0.95-0.71-1.66c0-1.62,1.38-2.43,4.15-2.43h1.77V489.78z"/>
			<path class="st1" d="M161.94,481.73c-0.9-1.14-2.16-1.72-3.77-1.72c-1.58,0-2.84,0.61-3.79,1.82c-0.95,1.22-1.43,2.85-1.43,4.92
				c0,2.15,0.48,3.85,1.44,5.09c0.96,1.24,2.21,1.86,3.75,1.86c1.56,0,2.79-0.52,3.69-1.56v1.14c0,1.12-0.31,1.99-0.92,2.61
				c-0.61,0.62-1.47,0.93-2.57,0.93c-1.4,0-2.59-0.6-3.56-1.8l-1.17,1.36c0.48,0.7,1.18,1.26,2.09,1.67s1.84,0.61,2.8,0.61
				c1.7,0,3.06-0.49,4.08-1.48c1.02-0.99,1.52-2.33,1.52-4.05v-12.89h-2.07L161.94,481.73z M161.84,489.86
				c-0.67,1.29-1.71,1.94-3.14,1.94c-1.1,0-1.95-0.43-2.56-1.28c-0.61-0.85-0.92-2.02-0.92-3.5c0-1.68,0.31-2.95,0.93-3.8
				s1.48-1.28,2.57-1.28c1.39,0,2.42,0.63,3.11,1.89V489.86z"/>
			<path class="st1" d="M174.3,480.02c-1.61,0-2.91,0.61-3.91,1.84v-7.14h-2.26v18.75h2.26v-9.41c0.31-0.64,0.74-1.15,1.3-1.54
				c0.55-0.39,1.2-0.58,1.93-0.58c0.9,0,1.57,0.23,1.99,0.68c0.43,0.46,0.65,1.16,0.65,2.11v8.74h2.26v-8.73
				C178.5,481.59,177.09,480.02,174.3,480.02z"/>
		</g>
		<g>
			<path class="st3" d="M196.62,480.02c-0.96,0-1.8,0.19-2.5,0.58c-0.71,0.39-1.28,0.9-1.72,1.54c-0.67-1.42-1.92-2.13-3.76-2.13
				c-1.64,0-2.95,0.57-3.92,1.72l-0.07-1.47h-2.14v13.2h2.26v-9.65c0.55-1.26,1.56-1.89,3.05-1.89c1.88,0,2.82,0.96,2.82,2.88v8.66
				h2.26v-8.76c0.09-0.85,0.41-1.52,0.97-2.02c0.55-0.5,1.25-0.75,2.09-0.75c1.01,0,1.74,0.23,2.17,0.7s0.65,1.17,0.65,2.12v8.72
				h2.26v-8.85C200.99,481.55,199.51,480.02,196.62,480.02z"/>
			<path class="st3" d="M210.27,480.02c-1.05,0-2.03,0.29-2.93,0.88c-0.9,0.58-1.6,1.39-2.1,2.42s-0.75,2.2-0.75,3.51v0.41
				c0,1.97,0.56,3.54,1.68,4.72c1.12,1.17,2.58,1.76,4.38,1.76c2.21,0,3.87-0.85,4.98-2.54l-1.38-1.08c-0.42,0.54-0.9,0.97-1.46,1.3
				s-1.23,0.49-2.03,0.49c-1.12,0-2.04-0.4-2.77-1.2c-0.73-0.8-1.11-1.85-1.14-3.15h8.94v-0.94c0-2.11-0.48-3.73-1.43-4.86
				C213.32,480.58,211.99,480.02,210.27,480.02z M213.44,485.65h-6.61c0.14-1.19,0.53-2.12,1.15-2.78c0.62-0.67,1.39-1,2.3-1
				c0.95,0,1.7,0.32,2.25,0.95s0.86,1.52,0.92,2.67V485.65z"/>
			<path class="st3" d="M226.83,486.74c-0.7-0.35-1.62-0.65-2.74-0.9s-1.91-0.52-2.34-0.79c-0.43-0.28-0.64-0.69-0.64-1.23
				c0-0.58,0.23-1.04,0.69-1.4c0.46-0.36,1.1-0.54,1.92-0.54c0.8,0,1.47,0.23,1.99,0.68c0.52,0.45,0.78,0.98,0.78,1.6h2.27
				c0-1.21-0.47-2.19-1.4-2.97c-0.93-0.77-2.15-1.16-3.65-1.16c-1.42,0-2.59,0.38-3.5,1.13c-0.91,0.75-1.37,1.67-1.37,2.75
				c0,0.65,0.16,1.21,0.48,1.68s0.82,0.88,1.49,1.22c0.67,0.34,1.58,0.64,2.72,0.88c1.14,0.24,1.95,0.53,2.4,0.87
				c0.46,0.34,0.69,0.81,0.69,1.43c0,0.58-0.26,1.04-0.77,1.38c-0.52,0.34-1.2,0.52-2.06,0.52c-0.93,0-1.68-0.22-2.24-0.66
				c-0.56-0.44-0.87-1.04-0.9-1.8h-2.26c0,0.78,0.23,1.51,0.69,2.18c0.46,0.67,1.09,1.2,1.91,1.57s1.75,0.56,2.81,0.56
				c1.51,0,2.73-0.36,3.68-1.07c0.94-0.71,1.42-1.66,1.42-2.83c0-0.71-0.17-1.31-0.51-1.81S227.53,487.09,226.83,486.74z"/>
			<path class="st3" d="M240.34,486.74c-0.7-0.35-1.62-0.65-2.74-0.9s-1.91-0.52-2.34-0.79c-0.43-0.28-0.64-0.69-0.64-1.23
				c0-0.58,0.23-1.04,0.69-1.4c0.46-0.36,1.1-0.54,1.92-0.54c0.8,0,1.47,0.23,1.99,0.68c0.52,0.45,0.78,0.98,0.78,1.6h2.27
				c0-1.21-0.47-2.19-1.4-2.97c-0.93-0.77-2.15-1.16-3.65-1.16c-1.42,0-2.59,0.38-3.5,1.13c-0.91,0.75-1.37,1.67-1.37,2.75
				c0,0.65,0.16,1.21,0.48,1.68s0.82,0.88,1.49,1.22c0.67,0.34,1.58,0.64,2.72,0.88c1.14,0.24,1.95,0.53,2.4,0.87
				c0.46,0.34,0.69,0.81,0.69,1.43c0,0.58-0.26,1.04-0.77,1.38c-0.52,0.34-1.2,0.52-2.06,0.52c-0.93,0-1.68-0.22-2.24-0.66
				c-0.56-0.44-0.87-1.04-0.9-1.8h-2.26c0,0.78,0.23,1.51,0.69,2.18c0.46,0.67,1.09,1.2,1.91,1.57s1.75,0.56,2.81,0.56
				c1.51,0,2.73-0.36,3.68-1.07c0.94-0.71,1.42-1.66,1.42-2.83c0-0.71-0.17-1.31-0.51-1.81S241.04,487.09,240.34,486.74z"/>
			<path class="st3" d="M251.16,480.02c-1.05,0-2.03,0.29-2.93,0.88c-0.9,0.58-1.6,1.39-2.1,2.42s-0.75,2.2-0.75,3.51v0.41
				c0,1.97,0.56,3.54,1.68,4.72c1.12,1.17,2.58,1.76,4.38,1.76c2.21,0,3.87-0.85,4.98-2.54l-1.37-1.08c-0.42,0.54-0.9,0.97-1.46,1.3
				s-1.23,0.49-2.03,0.49c-1.12,0-2.04-0.4-2.77-1.2c-0.73-0.8-1.11-1.85-1.14-3.15h8.94v-0.94c0-2.11-0.48-3.73-1.43-4.86
				C254.22,480.58,252.88,480.02,251.16,480.02z M254.33,485.65h-6.61c0.14-1.19,0.53-2.12,1.15-2.78c0.62-0.67,1.39-1,2.3-1
				c0.95,0,1.7,0.32,2.25,0.95s0.86,1.52,0.92,2.67V485.65z"/>
			<path class="st3" d="M266,480.02c-1.63,0-2.95,0.64-3.95,1.91l-0.08-1.66h-2.14v13.2h2.26v-9.41c0.31-0.64,0.74-1.15,1.3-1.54
				c0.55-0.39,1.2-0.58,1.93-0.58c0.9,0,1.57,0.23,1.99,0.68c0.43,0.46,0.65,1.16,0.65,2.11v8.74h2.26v-8.73
				C270.2,481.59,268.79,480.02,266,480.02z"/>
			<path class="st3" d="M282.71,481.73c-0.9-1.14-2.16-1.72-3.77-1.72c-1.58,0-2.84,0.61-3.79,1.82c-0.95,1.22-1.43,2.85-1.43,4.92
				c0,2.15,0.48,3.85,1.44,5.09c0.96,1.24,2.21,1.86,3.75,1.86c1.56,0,2.79-0.52,3.69-1.56v1.14c0,1.12-0.31,1.99-0.92,2.61
				c-0.61,0.62-1.47,0.93-2.57,0.93c-1.4,0-2.59-0.6-3.56-1.8l-1.17,1.36c0.48,0.7,1.18,1.26,2.09,1.67s1.84,0.61,2.8,0.61
				c1.7,0,3.06-0.49,4.08-1.48c1.02-0.99,1.52-2.33,1.52-4.05v-12.89h-2.07L282.71,481.73z M282.61,489.86
				c-0.67,1.29-1.71,1.94-3.14,1.94c-1.1,0-1.95-0.43-2.56-1.28c-0.61-0.85-0.92-2.02-0.92-3.5c0-1.68,0.31-2.95,0.93-3.8
				s1.48-1.28,2.57-1.28c1.39,0,2.42,0.63,3.11,1.89V489.86z"/>
			<path class="st3" d="M294.11,480.02c-1.05,0-2.03,0.29-2.93,0.88c-0.9,0.58-1.6,1.39-2.1,2.42s-0.75,2.2-0.75,3.51v0.41
				c0,1.97,0.56,3.54,1.68,4.72c1.12,1.17,2.58,1.76,4.38,1.76c2.21,0,3.87-0.85,4.98-2.54l-1.38-1.08c-0.42,0.54-0.9,0.97-1.46,1.3
				s-1.23,0.49-2.03,0.49c-1.12,0-2.04-0.4-2.77-1.2c-0.73-0.8-1.11-1.85-1.14-3.15h8.94v-0.94c0-2.11-0.48-3.73-1.43-4.86
				C297.16,480.58,295.83,480.02,294.11,480.02z M297.28,485.65h-6.61c0.14-1.19,0.53-2.12,1.15-2.78c0.62-0.67,1.39-1,2.3-1
				c0.95,0,1.7,0.32,2.25,0.95s0.86,1.52,0.92,2.67V485.65z"/>
			<path class="st3" d="M305.02,481.79l-0.03-1.52h-2.21v13.2h2.26v-9.38c0.53-1.26,1.53-1.9,3.01-1.9c0.4,0,0.77,0.03,1.11,0.09
				v-2.1c-0.23-0.11-0.56-0.17-1-0.17C306.81,480.02,305.76,480.61,305.02,481.79z"/>
			<path class="st3" d="M313.3,490.91c-0.46,0-0.81,0.13-1.04,0.39c-0.23,0.26-0.35,0.59-0.35,0.98c0,0.37,0.12,0.68,0.35,0.94
				c0.23,0.25,0.58,0.38,1.04,0.38s0.81-0.13,1.06-0.38c0.24-0.25,0.36-0.57,0.36-0.94c0-0.39-0.12-0.72-0.36-0.98
				C314.11,491.04,313.76,490.91,313.3,490.91z"/>
			<path class="st3" d="M320.41,475.45c-0.44,0-0.77,0.13-1,0.38s-0.34,0.56-0.34,0.93c0,0.37,0.11,0.68,0.34,0.92
				c0.23,0.24,0.56,0.36,1,0.36s0.77-0.12,1-0.36c0.23-0.24,0.34-0.55,0.34-0.92c0-0.36-0.11-0.67-0.34-0.93
				S320.85,475.45,320.41,475.45z"/>
			<rect x="319.27" y="480.27" class="st3" width="2.25" height="13.2"/>
			<path class="st3" d="M331.14,480.02c-1.36,0-2.41,0.59-3.15,1.77l-0.03-1.52h-2.21v13.2h2.26v-9.38c0.53-1.26,1.53-1.9,3.01-1.9
				c0.4,0,0.77,0.03,1.11,0.09v-2.1C331.91,480.07,331.58,480.02,331.14,480.02z"/>
		</g>
	</g>
</g>
</svg>
